<?xml version="1.0" ?>
<svg data-name="1-user" id="_1-user" viewBox="0 0 64 64"
    xmlns="http://www.w3.org/2000/svg">
    <path d="M1,63A30,30,0,0,1,31,33H33A30,30,0,0,1,63,63Z" style="fill:#a8d7e4"/>
    <circle cx="46" cy="19.00002" r="5" style="fill:#87bbc9"/>
    <circle cx="18" cy="19.00002" r="5" style="fill:#87bbc9"/>
    <path d="M43.5462,34.9115A29.92459,29.92459,0,0,0,33,33H31a29.92459,29.92459,0,0,0-10.5462,1.9115,13.99233,13.99233,0,0,0,23.0924,0Z" style="fill:#87bbc9"/>
    <rect height="36" rx="13.99999" style="fill:#a8d7e4" width="28" x="18" y="1.00001"/>
    <ellipse cx="26" cy="17.00002" rx="2" ry="3" style="fill:#7bace6"/>
    <ellipse cx="38" cy="17.00002" rx="2" ry="3" style="fill:#7bace6"/>
    <path d="M32,31c-4.56543,0-6.80127-4.3667-6.89453-4.55273a1.00012,1.00012,0,1,1,1.78906-.89454C26.91064,25.58447,28.68359,29,32,29s5.08936-3.41553,5.10693-3.4502a1.00013,1.00013,0,0,1,1.7876.89747C38.80127,26.6333,36.56543,31,32,31Z" style="fill:#7bace6"/>
    <path d="M16,63V49a1,1,0,0,0-2,0V63Z" style="fill:#87bbc9"/>
    <path d="M50,63V49a1,1,0,0,0-2,0V63Z" style="fill:#87bbc9"/>
</svg>