<svg xmlns="http://www.w3.org/2000/svg" viewBox="0 0 134.65 137.99">
    <defs>
        <style>.a,.c{fill:#25272d;}.a{opacity:0.19;}.b{fill:#1bb1e7;}.d{fill:#3a3a3a;opacity:0.22;}.e,.f{fill:#fff;}.e{opacity:0.18;}.g{fill:#0071bb;}</style>
    </defs>
    <title>Element 18</title>
    <polygon class="a" points="132.42 133.54 134.65 97.05 124.28 50.05 99.83 17.97 59.82 12.04 24.07 25.17 10.4 75.26 6.79 133.68 30.98 121.93 47.97 137.99 70.19 118.73 91.11 136.45 113.23 112.95 132.42 133.54"/>
    <polygon class="b" points="0 118.54 1.48 62.23 20.74 13.34 50.38 0 90.39 5.93 117.06 41.49 122.98 91.87 122.98 121.5 102.24 106.68 84.46 122.98 60.75 106.68 38.52 125.95 20.74 112.61 0 118.54"/>
    <polygon class="c" points="122.98 121.5 102.24 106.68 105.28 103.65 122.98 121.5"/>
    <polygon class="c" points="84.46 122.98 60.6 111.74 38.52 125.95 60.75 106.68 84.46 122.98"/>
    <polygon class="c" points="0 118.54 25.42 116.19 20.74 112.61 0 118.54"/>
    <polygon class="d" points="90.39 5.93 117.06 41.49 122.98 91.87 122.98 121.5 105.28 103.65 84.46 122.98 93.15 88.49 101.24 42.8 90.39 5.93"/>
    <polygon class="e" points="50.38 0 20.74 13.34 0.96 63.22 27.64 18.94 50.38 0"/>
    <polygon class="f" points="22.82 25.85 15.33 34.91 11.78 48.71 16.51 66.45 28.73 71.57 40.55 67.63 45.68 53.44 45.68 36.1 39.76 27.03 31.88 24.27 22.82 25.85"/>
    <polygon class="g" points="20.45 41.22 15.33 45.56 16.11 56.99 18.48 60.53 26.76 61.72 29.91 53.83 30.3 45.56 26.76 42.4 20.45 41.22"/>
    <polygon class="f" points="72.08 26.64 64.59 35.7 61.05 49.5 65.78 67.23 78 72.36 89.82 68.42 94.94 54.23 94.94 36.88 89.03 27.82 81.15 25.06 72.08 26.64"/>
    <polygon class="g" points="69.72 42.01 64.59 46.34 65.38 57.77 67.75 61.32 76.03 62.51 79.18 54.62 79.57 46.34 76.03 43.19 69.72 42.01"/>
</svg>