<?xml version="1.0" ?>
<svg id="outine" viewBox="0 0 48 48"
    xmlns="http://www.w3.org/2000/svg">
    <title/>
    <path d="M9.694,13.643c2.135,0,4.568-3.157,4.568-5.926A4.459,4.459,0,0,0,9.694,2.968,4.46,4.46,0,0,0,5.126,7.717C5.126,10.486,7.56,13.643,9.694,13.643Zm0-9.175a2.963,2.963,0,0,1,3.068,3.249c0,2.15-2,4.426-3.068,4.426S6.626,9.867,6.626,7.717A2.963,2.963,0,0,1,9.694,4.468Z" style="fill:#1c1c1b"/>
    <path d="M9.7,29.546a.75.75,0,0,0-.75.75V42.529a.75.75,0,0,0,1.5,0V30.3A.75.75,0,0,0,9.7,29.546Z" style="fill:#1c1c1b"/>
    <path d="M17.867,31.166a2.874,2.874,0,0,0,1.53-2.543V16.507a.748.748,0,0,0-.435-.681l-5.753-2.654a.745.745,0,0,0-.656.013L9.694,14.648,6.846,13.186a.74.74,0,0,0-.658-.014L.436,15.826A.749.749,0,0,0,0,16.507V28.623a2.872,2.872,0,0,0,1.529,2.542l1.992,1.057a.663.663,0,0,0,.146.036V42.529a.75.75,0,0,0,1.5,0V20.03a.75.75,0,1,0-1.5,0V30.6l-1.435-.761A1.376,1.376,0,0,1,1.5,28.623V16.986l4.681-2.159,2.855,5.21a.751.751,0,0,0,1.316,0l2.863-5.212,4.682,2.16V28.623a1.377,1.377,0,0,1-.733,1.218l-1.435.761V20.03a.75.75,0,0,0-1.5,0v22.5a.75.75,0,0,0,1.5,0V32.265a.7.7,0,0,0,.148-.043ZM9.7,18.117l-1.359-2.48,1.016.521a.744.744,0,0,0,.684,0l1.023-.524Z" style="fill:#1c1c1b"/>
    <path d="M38.3,13.643c2.135,0,4.568-3.157,4.568-5.926a4.571,4.571,0,1,0-9.136,0C33.729,10.486,36.162,13.643,38.3,13.643Zm0-9.175a2.963,2.963,0,0,1,3.068,3.249c0,2.15-2,4.426-3.068,4.426s-3.068-2.276-3.068-4.426A2.963,2.963,0,0,1,38.3,4.468Z" style="fill:#1c1c1b"/>
    <path d="M38.3,29.546a.75.75,0,0,0-.75.75V42.529a.75.75,0,0,0,1.5,0V30.3A.75.75,0,0,0,38.3,29.546Z" style="fill:#1c1c1b"/>
    <path d="M47.564,15.826l-5.752-2.654a.747.747,0,0,0-.657.013L38.3,14.648l-2.849-1.462a.737.737,0,0,0-.657-.014l-5.753,2.654a.748.748,0,0,0-.435.681V28.623a2.871,2.871,0,0,0,1.53,2.542l1.99,1.057a.763.763,0,0,0,.148.044V42.529a.75.75,0,1,0,1.5,0V20.03a.75.75,0,0,0-1.5,0V30.6l-1.435-.762a1.374,1.374,0,0,1-.733-1.217V16.986l4.681-2.159,2.855,5.21a.75.75,0,0,0,1.315,0l2.864-5.211L46.5,16.986V28.623a1.376,1.376,0,0,1-.732,1.218l-1.435.761V20.03a.75.75,0,0,0-1.5,0v22.5a.75.75,0,0,0,1.5,0V32.258a.663.663,0,0,0,.146-.036l1.992-1.057A2.872,2.872,0,0,0,48,28.623V16.507A.749.749,0,0,0,47.564,15.826ZM38.3,18.117l-1.359-2.48,1.015.521a.746.746,0,0,0,.685,0l1.023-.524Z" style="fill:#1c1c1b"/>
    <path d="M29.192,40.245a.75.75,0,1,0-1.06,1.061l.473.473H19.4l.473-.473a.75.75,0,1,0-1.06-1.061L17.055,42a.75.75,0,0,0,0,1.061l1.753,1.752a.75.75,0,0,0,1.06-1.06l-.472-.473H28.6l-.472.473a.75.75,0,1,0,1.06,1.06l1.753-1.752a.75.75,0,0,0,0-1.061Z" style="fill:#1c1c1b"/>
</svg>