<svg xmlns="http://www.w3.org/2000/svg" viewBox="0 0 64 64">
    <defs>
        <style>.cls-1{fill:#ffd578;stroke:#54596e;}.cls-1,.cls-10,.cls-3,.cls-4,.cls-5,.cls-7,.cls-8{stroke-linecap:round;}.cls-1,.cls-10,.cls-3,.cls-4,.cls-5,.cls-7,.cls-8,.cls-9{stroke-linejoin:round;}.cls-1,.cls-10,.cls-2,.cls-3,.cls-4,.cls-5,.cls-7,.cls-8,.cls-9{stroke-width:2px;}.cls-2{fill:#3eb51d;stroke:#3eb51d;stroke-miterlimit:10;}.cls-3,.cls-6{fill:#ffe082;}.cls-3{stroke:#ffe082;}.cls-4{fill:#dda036;stroke:#dda036;}.cls-5{fill:#eaca80;}.cls-10,.cls-5{stroke:#eaca80;}.cls-7,.cls-9{fill:#8d6e63;stroke:#8d6e63;}.cls-8{fill:#fa57ff;stroke:#fa57ff;}.cls-9{stroke-linecap:square;}.cls-10{fill:none;}</style>
    </defs>
    <title>team-female</title>
    <g id="team-female">
        <circle class="cls-1" cx="34.75" cy="33.63" r="3"/>
        <path class="cls-2" d="M33.28,51H8.46C4.89,51,2,53.58,2,56.76V61H39V56.1C39,53.28,36.44,51,33.28,51Z"/>
        <circle class="cls-3" cx="7" cy="33" r="3"/>
        <path class="cls-4" d="M34,33.38l.75-8.76A10.51,10.51,0,0,0,24.34,14H16.66A10.51,10.51,0,0,0,6.25,24.61L7,33.38"/>
        <path class="cls-5" d="M16,47.13h9a0,0,0,0,1,0,0v4.13A3.75,3.75,0,0,1,21.25,55h-1.5A3.75,3.75,0,0,1,16,51.25V47.13A0,0,0,0,1,16,47.13Z"/>
        <path class="cls-6" d="M15.53,26.58C8.07,26.58,7,20,7,27.32v6.14a18.23,18.23,0,0,0,4.14,10.73c2,2.39,5.56,3.81,9.36,3.81s7.38-1.41,9.36-3.81A18.23,18.23,0,0,0,34,33.46V27.32C34,20,23,26.58,15.53,26.58Z"/>
        <path class="cls-7" d="M58,23.83C57.55,17.25,51,14,44,14h0c-7,0-13.55,3.25-14,9.83L30,45H58Z"/>
        <path class="cls-8" d="M55.28,51H33.46C29.89,51,27,53.42,27,56.42v4.71H61V55.8C61,53.15,58.44,51,55.28,51Z"/>
        <path class="cls-5" d="M41,46.13h6a0,0,0,0,1,0,0v5.25a3,3,0,0,1-3,3h0a3,3,0,0,1-3-3V46.13A0,0,0,0,1,41,46.13Z"/>
        <line class="cls-9" x1="56" y1="59" x2="56" y2="61"/>
        <line class="cls-9" x1="32" y1="59" x2="32" y2="61"/>
        <circle class="cls-6" cx="55" cy="33" r="3"/>
        <circle class="cls-6" cx="33" cy="33" r="3"/>
        <path class="cls-6" d="M44,48h0A11,11,0,0,1,33,36.92v-10a3.27,3.27,0,0,1,3.26-3.28l1.83.52a21.47,21.47,0,0,0,11.82,0l1.83-.52A3.27,3.27,0,0,1,55,26.91v10A11,11,0,0,1,44,48Z"/>
        <line class="cls-10" x1="44" y1="58.63" x2="44" y2="54.38"/>
        <line class="cls-9" x1="7" y1="59" x2="7" y2="61"/>
    </g>
</svg>